<svg id="Capa_1" data-name="Capa 1" xmlns="http://www.w3.org/2000/svg" xmlns:xlink="http://www.w3.org/1999/xlink" viewBox="0 0 256 256"><defs><style>.cls-1{fill:url(#Degradado_sin_nombre_12);}.cls-2{fill:#fff;}</style><linearGradient id="Degradado_sin_nombre_12" x1="168.57" y1="279.43" x2="87.43" y2="-23.43" gradientUnits="userSpaceOnUse"><stop offset="0" stop-color="#4a6c91"/><stop offset="1" stop-color="#6d6d6d"/></linearGradient></defs><title>icon</title><rect class="cls-1" width="256" height="256"/><path class="cls-2" d="M223.65,124.6C214,84.2,176.71,59.3,136,56.36V50.74a8,8,0,0,0-16,0v5.62C79.41,59.28,42.24,84,32.36,124.57a8.79,8.79,0,0,0,14.52,8.49l.16-.15c16.39-15.26,29.8-9.36,41.74,9.21a8.81,8.81,0,0,0,15.17,0c4.51-7,9.21-13.4,16.05-16.25v58.06a13.32,13.32,0,0,1-26.64,0,8,8,0,0,0-16,0,29.3,29.3,0,0,0,58.61,0V126c8.62,3.61,12.66,10.85,16,16.14a8.81,8.81,0,0,0,15.18,0c12.06-18.63,25.5-24.34,41.74-9.22l.16.15a8.79,8.79,0,0,0,14.53-8.46Zm-23.12-15c-15.94-4.57-29.9,2.7-40.62,15.51-8-10-18.93-16.77-31.91-16.77S104.78,114.58,96.51,125c-11.87-14.74-27.58-19-40.84-15.6C70.39,85,99.37,72.06,128,72.06s57.86,13,72.53,37.55Z"/></svg>